<?xml version="1.0" standalone="no"?>
<!DOCTYPE svg PUBLIC "-//W3C//DTD SVG 20010904//EN"
 "http://www.w3.org/TR/2001/REC-SVG-20010904/DTD/svg10.dtd">
<svg version="1.0" xmlns="http://www.w3.org/2000/svg"
 width="225.000000pt" height="225.000000pt" viewBox="0 0 225.000000 225.000000"
 preserveAspectRatio="xMidYMid meet">

<g transform="translate(0.000000,225.000000) scale(0.100000,-0.100000)"
fill="#000000" stroke="none">
<path d="M955 2046 c-361 -70 -640 -331 -737 -687 -33 -121 -33 -347 0 -468
90 -333 340 -583 673 -673 121 -33 347 -33 468 0 333 90 583 340 673 673 33
121 33 347 0 468 -90 331 -341 583 -667 671 -103 28 -309 36 -410 16z m453
-548 l-3 -93 -187 -3 -188 -2 0 -90 0 -90 190 0 190 0 0 -95 0 -95 -190 0
-190 0 0 -90 0 -90 188 -2 187 -3 3 -92 3 -93 -286 0 -285 0 0 465 0 465 285
0 286 0 -3 -92z"/>
</g>
</svg>
