<?xml version="1.0" standalone="no"?>
<!DOCTYPE svg PUBLIC "-//W3C//DTD SVG 20010904//EN"
 "http://www.w3.org/TR/2001/REC-SVG-20010904/DTD/svg10.dtd">
<svg version="1.0" xmlns="http://www.w3.org/2000/svg"
 width="225.000000pt" height="225.000000pt" viewBox="0 0 225.000000 225.000000"
 preserveAspectRatio="xMidYMid meet">

<g transform="translate(0.000000,225.000000) scale(0.100000,-0.100000)"
fill="#000000" stroke="none">
<path d="M222 2083 c4 -49 17 -189 28 -313 10 -124 29 -328 40 -455 33 -373
48 -549 65 -740 8 -99 18 -203 21 -232 7 -62 -39 -43 426 -173 l327 -91 163
46 c90 26 253 71 363 102 110 31 204 60 209 64 9 8 15 59 46 419 11 129 27
309 35 400 9 91 31 345 50 565 19 220 38 421 41 448 l6 47 -914 0 -914 0 8
-87z m1481 -308 c-1 -11 -5 -64 -8 -117 l-7 -98 -440 0 -440 0 6 -87 c4 -49 9
-100 12 -115 l6 -28 415 0 416 0 -6 -87 c-9 -125 -45 -539 -53 -595 -5 -42 -9
-47 -37 -54 -17 -3 -122 -32 -235 -64 l-204 -58 -237 66 c-130 36 -237 66
-237 66 -3 1 -34 342 -34 365 0 20 5 21 114 21 63 0 117 -4 120 -8 3 -5 8 -49
12 -100 l7 -91 81 -21 c44 -12 102 -27 127 -35 43 -12 53 -11 172 22 121 34
127 37 128 62 0 14 6 81 12 149 l13 122 -397 0 -397 0 -6 38 c-3 20 -13 123
-21 227 -9 105 -20 231 -25 280 -5 50 -10 107 -10 128 l0 37 578 -2 c570 -3
577 -3 575 -23z"/>
</g>
</svg>
