<?xml version="1.0" standalone="no"?>
<!DOCTYPE svg PUBLIC "-//W3C//DTD SVG 20010904//EN"
 "http://www.w3.org/TR/2001/REC-SVG-20010904/DTD/svg10.dtd">
<svg version="1.0" xmlns="http://www.w3.org/2000/svg"
 width="256.000000pt" height="256.000000pt" viewBox="0 0 256.000000 256.000000"
 preserveAspectRatio="xMidYMid meet">

<g transform="translate(0.000000,256.000000) scale(0.100000,-0.100000)"
fill="#000000" stroke="none">
<path d="M916 2319 c-374 -49 -681 -90 -682 -92 -1 -1 43 -267 97 -592 l99
-590 143 -447 c78 -246 146 -448 152 -448 15 0 1439 403 1447 410 8 6 160
1267 156 1287 -4 16 -707 563 -721 562 -7 -1 -318 -41 -691 -90z m957 -271
c244 -190 282 -224 264 -230 -12 -4 -128 -26 -257 -48 l-235 -42 -155 162
-155 162 -423 -62 c-233 -33 -430 -60 -438 -58 -19 4 -97 181 -82 187 16 6
1120 149 1159 150 32 1 66 -22 322 -221z m-378 -526 c81 -100 146 -184 144
-186 -2 -1 -62 -15 -134 -30 -71 -15 -178 -37 -237 -50 l-108 -23 -50 86 c-27
47 -53 92 -58 99 -7 10 -53 4 -216 -28 -115 -23 -215 -40 -223 -38 -13 3 -78
153 -85 197 -2 12 82 30 402 87 223 40 408 71 411 70 4 0 73 -83 154 -184z
m-357 -587 c36 -74 48 -107 40 -110 -29 -11 -431 -106 -434 -103 -2 2 -21 54
-43 116 -40 112 -40 112 -18 117 129 33 357 83 377 84 23 1 31 -11 78 -104z"/>
</g>
</svg>
